<svg xmlns="http://www.w3.org/2000/svg" width="113" height="106" fill="none"><g filter="url(#a)"><path fill="#E5AF4A" d="M14.043 11.786c-.21-1.008.868-1.791 1.76-1.28l35.577 20.39c.905.519.755 1.868-.242 2.175L33.87 38.382a1.193 1.193 0 0 0-.65.49L24.58 52.186c-.58.893-1.95.637-2.168-.405l-8.368-39.994Z"/><path stroke="#fff" stroke-width="2.487" d="m23.603 51.405-8.32-39.763L50.66 31.917l-17.155 5.277a2.436 2.436 0 0 0-1.327 1.002l-8.575 13.209Z"/></g><g filter="url(#b)"><rect width="59" height="32" x="44" y="61.102" fill="#E5AF4A" rx="4"/><path fill="#050623" d="M55.363 84.103V70.284h5.29c.998 0 1.828.158 2.49.473.665.31 1.162.735 1.49 1.275.333.54.5 1.151.5 1.835 0 .562-.108 1.044-.324 1.444a2.724 2.724 0 0 1-.87.965 3.685 3.685 0 0 1-1.222.533v.135c.49.027.96.177 1.41.452.455.27.826.652 1.114 1.147.288.495.432 1.093.432 1.795 0 .715-.174 1.358-.52 1.93-.346.566-.868 1.014-1.565 1.342-.697.328-1.575.493-2.632.493h-5.593Zm2.503-2.092h2.692c.909 0 1.563-.173 1.964-.52.404-.35.607-.8.607-1.349a2.066 2.066 0 0 0-1.167-1.89c-.374-.193-.819-.29-1.336-.29h-2.76v4.049Zm0-5.85h2.476c.432 0 .821-.079 1.168-.236.346-.162.618-.39.816-.681.202-.297.304-.648.304-1.053 0-.535-.19-.976-.567-1.323-.373-.346-.929-.519-1.667-.519h-2.53v3.812Zm12.859 8.15c-.657 0-1.249-.116-1.775-.35a2.896 2.896 0 0 1-1.242-1.053c-.3-.463-.451-1.034-.451-1.713 0-.585.107-1.069.323-1.451.216-.382.51-.688.884-.918a4.46 4.46 0 0 1 1.262-.52c.472-.12.96-.208 1.464-.262.607-.063 1.1-.12 1.478-.17.377-.053.652-.134.823-.242.175-.112.263-.286.263-.52v-.04c0-.508-.15-.902-.452-1.18-.301-.28-.736-.42-1.302-.42-.599 0-1.073.131-1.424.392-.346.261-.58.57-.702.925l-2.28-.324c.18-.63.477-1.156.89-1.58.414-.426.92-.746 1.519-.957a5.807 5.807 0 0 1 1.983-.324c.5 0 .997.058 1.491.175.495.117.947.31 1.356.58.41.266.738.628.986 1.087.251.459.377 1.032.377 1.72v6.937H73.85v-1.424h-.082a2.979 2.979 0 0 1-.627.81c-.265.247-.6.447-1.005.6-.4.148-.87.223-1.41.223Zm.634-1.794c.49 0 .915-.097 1.275-.29.36-.198.636-.459.83-.783.198-.324.297-.677.297-1.06v-1.22c-.077.063-.207.121-.392.175-.18.054-.382.101-.607.142-.225.04-.447.076-.668.108l-.573.08c-.365.05-.69.131-.979.244-.288.112-.515.27-.681.472-.166.198-.25.454-.25.769 0 .45.164.79.493 1.019.328.23.746.344 1.255.344Zm7.293 1.586V73.739h2.369v1.727h.108c.189-.598.512-1.06.971-1.383a2.674 2.674 0 0 1 1.586-.492c.135 0 .285.006.452.02.17.009.313.024.425.047v2.247a2.576 2.576 0 0 0-.493-.095 4.53 4.53 0 0 0-.64-.047c-.446 0-.846.097-1.202.29-.35.19-.627.452-.83.79a2.225 2.225 0 0 0-.303 1.167v6.093h-2.443Zm13.265-10.364v1.89H85.96v-1.89h5.957Zm-4.487-2.483h2.443v9.73c0 .328.05.58.148.755a.801.801 0 0 0 .405.35c.167.064.351.095.553.095.153 0 .293-.01.419-.033.13-.023.23-.043.297-.061l.411 1.91c-.13.044-.317.094-.56.148-.238.054-.53.085-.877.094-.612.018-1.163-.074-1.653-.276a2.572 2.572 0 0 1-1.167-.959c-.284-.431-.423-.971-.419-1.619V71.256Z"/></g><defs><filter id="a" width="47.914" height="52.333" x="9.041" y="10.346" color-interpolation-filters="sRGB" filterUnits="userSpaceOnUse"><feFlood flood-opacity="0" result="BackgroundImageFix"/><feColorMatrix in="SourceAlpha" result="hardAlpha" values="0 0 0 0 0 0 0 0 0 0 0 0 0 0 0 0 0 0 127 0"/><feOffset dy="4.974"/><feGaussianBlur stdDeviation="2.487"/><feColorMatrix values="0 0 0 0 0 0 0 0 0 0 0 0 0 0 0 0 0 0 0.2 0"/><feBlend in2="BackgroundImageFix" result="effect1_dropShadow_2208_7927"/><feBlend in="SourceGraphic" in2="effect1_dropShadow_2208_7927" result="shape"/></filter><filter id="b" width="78.897" height="51.897" x="34.051" y="53.641" color-interpolation-filters="sRGB" filterUnits="userSpaceOnUse"><feFlood flood-opacity="0" result="BackgroundImageFix"/><feColorMatrix in="SourceAlpha" result="hardAlpha" values="0 0 0 0 0 0 0 0 0 0 0 0 0 0 0 0 0 0 127 0"/><feOffset dy="2.487"/><feGaussianBlur stdDeviation="4.974"/><feColorMatrix values="0 0 0 0 0 0 0 0 0 0 0 0 0 0 0 0 0 0 0.15 0"/><feBlend in2="BackgroundImageFix" result="effect1_dropShadow_2208_7927"/><feBlend in="SourceGraphic" in2="effect1_dropShadow_2208_7927" result="shape"/></filter></defs></svg>