<svg xmlns="http://www.w3.org/2000/svg" width="51" height="22" fill="none"><path fill="#fff" fill-opacity=".8" d="M17.44 5.64c0 1.328-.44 2.464-1.32 3.408-.88.944-2.16 1.64-3.84 2.088 1.2.304 2.08.752 2.64 1.344.576.576.864 1.328.864 2.256 0 1.264-.4 2.36-1.2 3.288-.784.928-1.928 1.648-3.432 2.16-1.504.496-3.312.744-5.424.744-1.344 0-2.696-.08-4.056-.24-.624-.064-1.056-.216-1.296-.456-.24-.24-.344-.592-.312-1.056.176-2.24.432-4.336.768-6.288s.824-4.072 1.464-6.36c.112-.416.32-.704.624-.864.304-.176.744-.264 1.32-.264.976 0 1.464.288 1.464.864 0 .224-.048.48-.144.768-.4 1.312-.824 3.168-1.272 5.568-.448 2.4-.712 4.264-.792 5.592.48.08 1.256.12 2.328.12 2.192 0 3.808-.32 4.848-.96 1.04-.656 1.56-1.488 1.56-2.496 0-.72-.328-1.312-.984-1.776-.64-.48-1.752-.744-3.336-.792-.336-.016-.568-.088-.696-.216-.112-.128-.168-.36-.168-.696 0-.48.096-.864.288-1.152.192-.288.544-.44 1.056-.456a8.62 8.62 0 0 0 2.688-.504c.832-.304 1.504-.736 2.016-1.296s.768-1.2.768-1.92c0-.912-.424-1.64-1.272-2.184-.848-.544-2.08-.816-3.696-.816-.912 0-1.84.08-2.784.24-.928.16-1.952.392-3.072.696a.842.842 0 0 1-.24.024.845.845 0 0 1-.648-.288 1.148 1.148 0 0 1-.264-.768c0-.464.128-.84.384-1.128.272-.304.624-.52 1.056-.648A25.616 25.616 0 0 1 6.136.528C7 .384 8.088.312 9.4.312c1.696 0 3.144.232 4.344.696 1.216.464 2.136 1.104 2.76 1.92.624.8.936 1.704.936 2.712Zm3.531 15.48c-.992 0-1.784-.36-2.376-1.08-.592-.72-.888-1.664-.888-2.832 0-1.28.296-2.488.888-3.624.592-1.152 1.376-2.072 2.352-2.76.992-.704 2.04-1.056 3.144-1.056.352 0 .584.072.696.216.128.128.232.368.312.72a5.635 5.635 0 0 1 1.056-.096c.784 0 1.176.28 1.176.84 0 .336-.12 1.136-.36 2.4-.368 1.84-.552 3.12-.552 3.84 0 .24.056.432.168.576a.616.616 0 0 0 .48.216c.304 0 .672-.192 1.104-.576.432-.4 1.016-1.04 1.752-1.92.192-.224.408-.336.648-.336.208 0 .368.096.48.288.128.192.192.456.192.792 0 .64-.152 1.136-.456 1.488A12.09 12.09 0 0 1 28.7 20.28c-.736.56-1.448.84-2.136.84-.528 0-1.016-.176-1.464-.528-.432-.368-.76-.864-.984-1.488-.832 1.344-1.88 2.016-3.144 2.016Zm.864-2.424c.352 0 .688-.208 1.008-.624.32-.416.552-.968.696-1.656L24.427 12c-.672.016-1.296.272-1.872.768-.56.48-1.008 1.12-1.344 1.92a6.503 6.503 0 0 0-.504 2.544c0 .496.096.864.288 1.104.208.24.488.36.84.36Zm17.154-5.592c.352 0 .648.128.888.384.256.24.384.544.384.912 0 .208-.048.432-.144.672a4.06 4.06 0 0 1-1.08 1.488c-.464.4-.976.6-1.536.6-.448 0-.832-.16-1.152-.48-.304-.32-.456-.752-.456-1.296 0-.304.016-.632.048-.984a5.11 5.11 0 0 0 .048-.528c0-.128-.032-.224-.096-.288a.228.228 0 0 0-.192-.096c-.224 0-.528.272-.912.816-.384.528-.768 1.232-1.152 2.112A17.24 17.24 0 0 0 32.7 19.2c-.176.768-.376 1.28-.6 1.536-.224.256-.592.384-1.104.384-.608 0-1.04-.32-1.296-.96-.24-.64-.36-1.664-.36-3.072 0-2.08.296-4.056.888-5.928.144-.464.376-.8.696-1.008.336-.224.8-.336 1.392-.336.32 0 .544.04.672.12.128.08.192.232.192.456 0 .256-.12.832-.36 1.728-.16.64-.288 1.2-.384 1.68-.096.48-.176 1.072-.24 1.776.528-1.376 1.12-2.496 1.776-3.36.656-.864 1.296-1.48 1.92-1.848.624-.368 1.192-.552 1.704-.552.464 0 .816.136 1.056.408.256.256.384.64.384 1.152 0 .304-.088.88-.264 1.728h.216Zm6.146-1.008c-.032.8-.048 1.424-.048 1.872 0 1.152.056 2.056.168 2.712.128.64.328 1.104.6 1.392.288.272.68.408 1.176.408.256 0 .56-.08.912-.24a3.81 3.81 0 0 0 .96-.624c.176-.16.352-.24.528-.24.192 0 .344.112.456.336.128.208.192.464.192.768s-.064.6-.192.888a1.69 1.69 0 0 1-.528.72c-.832.688-1.776 1.032-2.832 1.032-1.52 0-2.632-.632-3.336-1.896-.704-1.28-1.056-2.944-1.056-4.992 0-.704.024-1.416.072-2.136h-.936c-.48 0-.808-.088-.984-.264-.16-.176-.24-.456-.24-.84 0-.896.36-1.344 1.08-1.344h1.368c.272-1.76.688-3.368 1.248-4.824s1.232-2.616 2.016-3.48C46.56.48 47.415.048 48.327.048c.672 0 1.2.296 1.584.888.384.592.576 1.336.576 2.232 0 2.48-1.04 4.64-3.12 6.48h2.688c.256 0 .44.056.552.168.112.112.168.32.168.624 0 1.104-.904 1.656-2.712 1.656h-2.928Zm2.544-9.744c-.24 0-.512.304-.816.912-.288.592-.568 1.424-.84 2.496a35.09 35.09 0 0 0-.648 3.528c.944-.816 1.648-1.728 2.112-2.736.48-1.024.72-1.952.72-2.784 0-.944-.176-1.416-.528-1.416Z"/></svg>