<svg width="56" height="57" fill="none" xmlns="http://www.w3.org/2000/svg"><circle cx="28" cy="28.5" r="28" fill="#fff" fill-opacity=".05"/><path d="M37.484 14.5H18.516A4.516 4.516 0 0 0 14 19.016v18.968a4.516 4.516 0 0 0 4.516 4.516h18.968A4.516 4.516 0 0 0 42 37.984V19.016a4.516 4.516 0 0 0-4.516-4.516z" fill="#FFD02F"/><path fill-rule="evenodd" clip-rule="evenodd" d="M32.97 19.017h-2.71l2.259 4.064-4.968-4.064h-2.71l2.484 4.967-5.193-4.967h-2.71l2.71 6.322-2.71 12.645h2.71l5.193-13.548-2.484 13.548h2.71l4.968-14.451-2.258 14.451h2.71l4.967-15.806-4.968-3.161z" fill="#050038"/></svg>