<svg width="119" height="32" viewBox="0 0 119 32" fill="none" xmlns="http://www.w3.org/2000/svg">
<circle cx="16" cy="16" r="16" fill="#E5AF4A" fill-opacity="0.2"/>
<path d="M15.9983 24.8901C14.7834 24.8901 13.6353 24.6566 12.5538 24.1896C11.4723 23.7233 10.528 23.0862 9.72093 22.2785C8.91323 21.4714 8.27619 20.5271 7.80982 19.4456C7.34286 18.3642 7.10938 17.216 7.10938 16.0012C7.10938 14.7716 7.34997 13.616 7.83115 12.5345C8.31293 11.453 8.96508 10.5123 9.7876 9.7123C10.6095 8.9123 11.5686 8.27882 12.6649 7.81186C13.7612 7.34549 14.9316 7.1123 16.176 7.1123C17.3612 7.1123 18.4797 7.31616 19.5316 7.72386C20.5834 8.13097 21.5055 8.69393 22.2978 9.41275C23.0907 10.131 23.7203 10.9828 24.1867 11.9683C24.6537 12.9532 24.8872 14.016 24.8872 15.1567C24.8872 16.8605 24.3686 18.1677 23.3316 19.0785C22.2946 19.9899 21.0353 20.4456 19.5538 20.4456H17.9094C17.776 20.4456 17.6836 20.4827 17.632 20.5567C17.5799 20.6308 17.5538 20.7123 17.5538 20.8012C17.5538 20.979 17.6649 21.2344 17.8872 21.5674C18.1094 21.901 18.2205 22.2827 18.2205 22.7123C18.2205 23.453 18.0166 24.0012 17.6089 24.3567C17.2018 24.7123 16.6649 24.8901 15.9983 24.8901ZM11.1094 16.8901C11.4946 16.8901 11.8131 16.7642 12.0649 16.5123C12.3168 16.2605 12.4427 15.9419 12.4427 15.5567C12.4427 15.1716 12.3168 14.853 12.0649 14.6012C11.8131 14.3493 11.4946 14.2234 11.1094 14.2234C10.7242 14.2234 10.4057 14.3493 10.1538 14.6012C9.90197 14.853 9.77604 15.1716 9.77604 15.5567C9.77604 15.9419 9.90197 16.2605 10.1538 16.5123C10.4057 16.7642 10.7242 16.8901 11.1094 16.8901ZM13.776 13.3345C14.1612 13.3345 14.4797 13.2086 14.7316 12.9567C14.9834 12.7049 15.1094 12.3864 15.1094 12.0012C15.1094 11.616 14.9834 11.2975 14.7316 11.0456C14.4797 10.7938 14.1612 10.6679 13.776 10.6679C13.3909 10.6679 13.0723 10.7938 12.8205 11.0456C12.5686 11.2975 12.4427 11.616 12.4427 12.0012C12.4427 12.3864 12.5686 12.7049 12.8205 12.9567C13.0723 13.2086 13.3909 13.3345 13.776 13.3345ZM18.2205 13.3345C18.6057 13.3345 18.9242 13.2086 19.176 12.9567C19.4279 12.7049 19.5538 12.3864 19.5538 12.0012C19.5538 11.616 19.4279 11.2975 19.176 11.0456C18.9242 10.7938 18.6057 10.6679 18.2205 10.6679C17.8353 10.6679 17.5168 10.7938 17.2649 11.0456C17.0131 11.2975 16.8872 11.616 16.8872 12.0012C16.8872 12.3864 17.0131 12.7049 17.2649 12.9567C17.5168 13.2086 17.8353 13.3345 18.2205 13.3345ZM20.8872 16.8901C21.2723 16.8901 21.5909 16.7642 21.8427 16.5123C22.0946 16.2605 22.2205 15.9419 22.2205 15.5567C22.2205 15.1716 22.0946 14.853 21.8427 14.6012C21.5909 14.3493 21.2723 14.2234 20.8872 14.2234C20.502 14.2234 20.1834 14.3493 19.9316 14.6012C19.6797 14.853 19.5538 15.1716 19.5538 15.5567C19.5538 15.9419 19.6797 16.2605 19.9316 16.5123C20.1834 16.7642 20.502 16.8901 20.8872 16.8901Z" fill="#E5AF4A"/>
<path d="M52.1989 10.3636H54.6591V17.9205C54.6591 18.7689 54.4564 19.5114 54.0511 20.1477C53.6496 20.7841 53.0871 21.2803 52.3636 21.6364C51.6402 21.9886 50.7973 22.1648 49.8352 22.1648C48.8693 22.1648 48.0246 21.9886 47.3011 21.6364C46.5777 21.2803 46.0152 20.7841 45.6136 20.1477C45.2121 19.5114 45.0114 18.7689 45.0114 17.9205V10.3636H47.4716V17.7102C47.4716 18.1534 47.5682 18.5473 47.7614 18.892C47.9583 19.2367 48.2348 19.5076 48.5909 19.7045C48.947 19.9015 49.3617 20 49.8352 20C50.3125 20 50.7273 19.9015 51.0795 19.7045C51.4356 19.5076 51.7102 19.2367 51.9034 18.892C52.1004 18.5473 52.1989 18.1534 52.1989 17.7102V10.3636ZM59.1435 10.3636V22H56.6832V10.3636H59.1435ZM68.9957 22H64.8707V10.3636H69.0298C70.2003 10.3636 71.2079 10.5966 72.0526 11.0625C72.8973 11.5246 73.5469 12.1894 74.0014 13.0568C74.4598 13.9242 74.6889 14.9621 74.6889 16.1705C74.6889 17.3826 74.4598 18.4242 74.0014 19.2955C73.5469 20.1667 72.8935 20.8352 72.0412 21.3011C71.1927 21.767 70.1776 22 68.9957 22ZM67.331 19.892H68.8935C69.6207 19.892 70.2325 19.7633 70.7287 19.5057C71.2287 19.2443 71.6037 18.8409 71.8537 18.2955C72.1075 17.7462 72.2344 17.0379 72.2344 16.1705C72.2344 15.3106 72.1075 14.608 71.8537 14.0625C71.6037 13.517 71.2306 13.1155 70.7344 12.858C70.2382 12.6004 69.6264 12.4716 68.8991 12.4716H67.331V19.892ZM80.4432 22.1705C79.5455 22.1705 78.7727 21.9886 78.125 21.625C77.4811 21.2576 76.9848 20.7386 76.6364 20.0682C76.2879 19.3939 76.1136 18.5966 76.1136 17.6761C76.1136 16.7784 76.2879 15.9905 76.6364 15.3125C76.9848 14.6345 77.4754 14.1061 78.108 13.7273C78.7443 13.3485 79.4905 13.1591 80.3466 13.1591C80.9223 13.1591 81.4583 13.2519 81.9545 13.4375C82.4545 13.6193 82.8902 13.8939 83.2614 14.2614C83.6364 14.6288 83.928 15.0909 84.1364 15.6477C84.3447 16.2008 84.4489 16.8485 84.4489 17.5909V18.2557H77.0795V16.7557H82.1705C82.1705 16.4072 82.0947 16.0985 81.9432 15.8295C81.7917 15.5606 81.5814 15.3504 81.3125 15.1989C81.0473 15.0436 80.7386 14.9659 80.3864 14.9659C80.0189 14.9659 79.6932 15.0511 79.4091 15.2216C79.1288 15.3883 78.9091 15.6136 78.75 15.8977C78.5909 16.178 78.5095 16.4905 78.5057 16.8352V18.2614C78.5057 18.6932 78.5852 19.0663 78.7443 19.3807C78.9072 19.6951 79.1364 19.9375 79.4318 20.108C79.7273 20.2784 80.0777 20.3636 80.483 20.3636C80.7519 20.3636 80.9981 20.3258 81.2216 20.25C81.4451 20.1742 81.6364 20.0606 81.7955 19.9091C81.9545 19.7576 82.0758 19.572 82.1591 19.3523L84.3977 19.5C84.2841 20.0379 84.0511 20.5076 83.6989 20.9091C83.3504 21.3068 82.8996 21.6174 82.3466 21.8409C81.7973 22.0606 81.1629 22.1705 80.4432 22.1705ZM93.2898 15.7614L91.0739 15.8977C91.036 15.7083 90.9545 15.5379 90.8295 15.3864C90.7045 15.2311 90.5398 15.108 90.3352 15.017C90.1345 14.9223 89.8939 14.875 89.6136 14.875C89.2386 14.875 88.9223 14.9545 88.6648 15.1136C88.4072 15.2689 88.2784 15.4773 88.2784 15.7386C88.2784 15.947 88.3617 16.1231 88.5284 16.267C88.6951 16.411 88.9811 16.5265 89.3864 16.6136L90.9659 16.9318C91.8144 17.1061 92.447 17.3864 92.8636 17.7727C93.2803 18.1591 93.4886 18.6667 93.4886 19.2955C93.4886 19.8674 93.3201 20.3693 92.983 20.8011C92.6496 21.233 92.1913 21.5701 91.608 21.8125C91.0284 22.0511 90.3598 22.1705 89.6023 22.1705C88.447 22.1705 87.5265 21.9299 86.8409 21.4489C86.1591 20.964 85.7595 20.3049 85.642 19.4716L88.0227 19.3466C88.0947 19.6989 88.2689 19.9678 88.5455 20.1534C88.822 20.3352 89.1761 20.4261 89.608 20.4261C90.0322 20.4261 90.3731 20.3447 90.6307 20.1818C90.892 20.0152 91.0246 19.8011 91.0284 19.5398C91.0246 19.3201 90.9318 19.1402 90.75 19C90.5682 18.8561 90.2879 18.7462 89.9091 18.6705L88.3977 18.3693C87.5455 18.1989 86.911 17.9034 86.4943 17.483C86.0814 17.0625 85.875 16.5265 85.875 15.875C85.875 15.3144 86.0265 14.8314 86.3295 14.4261C86.6364 14.0208 87.0663 13.7083 87.6193 13.4886C88.1761 13.2689 88.8277 13.1591 89.5739 13.1591C90.6761 13.1591 91.5436 13.392 92.1761 13.858C92.8125 14.3239 93.1837 14.9583 93.2898 15.7614ZM95.0128 22V13.2727H97.4332V22H95.0128ZM96.2287 12.1477C95.8688 12.1477 95.5601 12.0284 95.3026 11.7898C95.0488 11.5473 94.9219 11.2576 94.9219 10.9205C94.9219 10.5871 95.0488 10.3011 95.3026 10.0625C95.5601 9.82008 95.8688 9.69886 96.2287 9.69886C96.5885 9.69886 96.8954 9.82008 97.1491 10.0625C97.4067 10.3011 97.5355 10.5871 97.5355 10.9205C97.5355 11.2576 97.4067 11.5473 97.1491 11.7898C96.8954 12.0284 96.5885 12.1477 96.2287 12.1477ZM103.304 25.4545C102.52 25.4545 101.848 25.3466 101.287 25.1307C100.73 24.9186 100.287 24.6288 99.9574 24.2614C99.6278 23.8939 99.4138 23.4811 99.3153 23.0227L101.554 22.7216C101.622 22.8958 101.73 23.0587 101.878 23.2102C102.026 23.3617 102.221 23.483 102.463 23.5739C102.709 23.6686 103.009 23.7159 103.361 23.7159C103.887 23.7159 104.321 23.5871 104.662 23.3295C105.007 23.0758 105.179 22.6496 105.179 22.0511V20.4545H105.077C104.971 20.697 104.812 20.9261 104.599 21.142C104.387 21.358 104.115 21.5341 103.781 21.6705C103.448 21.8068 103.05 21.875 102.588 21.875C101.933 21.875 101.336 21.7235 100.798 21.4205C100.264 21.1136 99.8381 20.6458 99.5199 20.017C99.2055 19.3845 99.0483 18.5852 99.0483 17.6193C99.0483 16.6307 99.2093 15.8049 99.5312 15.142C99.8532 14.4792 100.281 13.983 100.815 13.6534C101.353 13.3239 101.942 13.1591 102.582 13.1591C103.071 13.1591 103.48 13.2424 103.81 13.4091C104.139 13.572 104.404 13.7765 104.605 14.0227C104.81 14.2652 104.967 14.5038 105.077 14.7386H105.168V13.2727H107.571V22.0852C107.571 22.8277 107.389 23.4489 107.026 23.9489C106.662 24.4489 106.158 24.8239 105.514 25.0739C104.874 25.3277 104.137 25.4545 103.304 25.4545ZM103.355 20.0568C103.745 20.0568 104.075 19.9602 104.344 19.767C104.616 19.5701 104.825 19.2898 104.969 18.9261C105.116 18.5587 105.19 18.1193 105.19 17.608C105.19 17.0966 105.118 16.6534 104.974 16.2784C104.83 15.8996 104.622 15.6061 104.349 15.3977C104.077 15.1894 103.745 15.0852 103.355 15.0852C102.957 15.0852 102.622 15.1932 102.349 15.4091C102.077 15.6212 101.87 15.9167 101.73 16.2955C101.59 16.6742 101.52 17.1117 101.52 17.608C101.52 18.1117 101.59 18.5473 101.73 18.9148C101.874 19.2784 102.08 19.5606 102.349 19.7614C102.622 19.9583 102.957 20.0568 103.355 20.0568ZM111.918 16.9545V22H109.497V13.2727H111.804V14.8125H111.906C112.099 14.3049 112.423 13.9034 112.878 13.608C113.332 13.3087 113.884 13.1591 114.531 13.1591C115.137 13.1591 115.666 13.2917 116.116 13.5568C116.567 13.822 116.918 14.2008 117.168 14.6932C117.418 15.1818 117.543 15.7652 117.543 16.4432V22H115.122V16.875C115.126 16.3409 114.99 15.9242 114.713 15.625C114.437 15.322 114.056 15.1705 113.571 15.1705C113.245 15.1705 112.957 15.2405 112.707 15.3807C112.461 15.5208 112.268 15.7254 112.128 15.9943C111.991 16.2595 111.921 16.5795 111.918 16.9545Z" fill="white"/>
</svg>
