<svg width="126" height="32" viewBox="0 0 126 32" fill="none" xmlns="http://www.w3.org/2000/svg">
<circle cx="16" cy="16" r="16" fill="#E5AF4A" fill-opacity="0.2"/>
<path d="M24.6215 17.1995L23.7328 18.0882L21.9108 16.2663L22.7996 15.3775C22.8909 15.288 23.0138 15.2378 23.1417 15.2378C23.2697 15.2378 23.3925 15.288 23.4839 15.3775L24.6215 16.5151C24.8081 16.7018 24.8081 17.0128 24.6215 17.1995ZM16.0006 22.1676L21.3864 16.7817L23.2084 18.6037L17.8315 23.9984H16.0006V22.1676ZM16.0006 17.7771C12.0724 17.7771 8.89062 19.368 8.89062 21.3321V23.1096H14.2231V21.4299L17.7781 17.8749C17.1916 17.8038 16.5961 17.7771 16.0006 17.7771ZM16.0006 8.88965C15.0578 8.88965 14.1536 9.26419 13.4869 9.93088C12.8202 10.5976 12.4456 11.5018 12.4456 12.4446C12.4456 13.3875 12.8202 14.2917 13.4869 14.9584C14.1536 15.6251 15.0578 15.9996 16.0006 15.9996C16.9435 15.9996 17.8477 15.6251 18.5144 14.9584C19.1811 14.2917 19.5556 13.3875 19.5556 12.4446C19.5556 11.5018 19.1811 10.5976 18.5144 9.93088C17.8477 9.26419 16.9435 8.88965 16.0006 8.88965Z" fill="#E5AF4A"/>
<path d="M52.1989 10.3636H54.6591V17.9205C54.6591 18.7689 54.4564 19.5114 54.0511 20.1477C53.6496 20.7841 53.0871 21.2803 52.3636 21.6364C51.6402 21.9886 50.7973 22.1648 49.8352 22.1648C48.8693 22.1648 48.0246 21.9886 47.3011 21.6364C46.5777 21.2803 46.0152 20.7841 45.6136 20.1477C45.2121 19.5114 45.0114 18.7689 45.0114 17.9205V10.3636H47.4716V17.7102C47.4716 18.1534 47.5682 18.5473 47.7614 18.892C47.9583 19.2367 48.2348 19.5076 48.5909 19.7045C48.947 19.9015 49.3617 20 49.8352 20C50.3125 20 50.7273 19.9015 51.0795 19.7045C51.4356 19.5076 51.7102 19.2367 51.9034 18.892C52.1004 18.5473 52.1989 18.1534 52.1989 17.7102V10.3636ZM58.9901 10.3636L61.3366 14.3295H61.4276L63.7855 10.3636H66.5639L63.0128 16.1818L66.6435 22H63.8139L61.4276 18.0284H61.3366L58.9503 22H56.1321L59.7741 16.1818L56.2003 10.3636H58.9901ZM75.9489 22H71.8239V10.3636H75.983C77.1534 10.3636 78.161 10.5966 79.0057 11.0625C79.8504 11.5246 80.5 12.1894 80.9545 13.0568C81.4129 13.9242 81.642 14.9621 81.642 16.1705C81.642 17.3826 81.4129 18.4242 80.9545 19.2955C80.5 20.1667 79.8466 20.8352 78.9943 21.3011C78.1458 21.767 77.1307 22 75.9489 22ZM74.2841 19.892H75.8466C76.5739 19.892 77.1856 19.7633 77.6818 19.5057C78.1818 19.2443 78.5568 18.8409 78.8068 18.2955C79.0606 17.7462 79.1875 17.0379 79.1875 16.1705C79.1875 15.3106 79.0606 14.608 78.8068 14.0625C78.5568 13.517 78.1837 13.1155 77.6875 12.858C77.1913 12.6004 76.5795 12.4716 75.8523 12.4716H74.2841V19.892ZM87.3963 22.1705C86.4986 22.1705 85.7259 21.9886 85.0781 21.625C84.4342 21.2576 83.938 20.7386 83.5895 20.0682C83.241 19.3939 83.0668 18.5966 83.0668 17.6761C83.0668 16.7784 83.241 15.9905 83.5895 15.3125C83.938 14.6345 84.4285 14.1061 85.0611 13.7273C85.6974 13.3485 86.4437 13.1591 87.2997 13.1591C87.8755 13.1591 88.4115 13.2519 88.9077 13.4375C89.4077 13.6193 89.8433 13.8939 90.2145 14.2614C90.5895 14.6288 90.8812 15.0909 91.0895 15.6477C91.2978 16.2008 91.402 16.8485 91.402 17.5909V18.2557H84.0327V16.7557H89.1236C89.1236 16.4072 89.0478 16.0985 88.8963 15.8295C88.7448 15.5606 88.5346 15.3504 88.2656 15.1989C88.0005 15.0436 87.6918 14.9659 87.3395 14.9659C86.9721 14.9659 86.6463 15.0511 86.3622 15.2216C86.0819 15.3883 85.8622 15.6136 85.7031 15.8977C85.544 16.178 85.4626 16.4905 85.4588 16.8352V18.2614C85.4588 18.6932 85.5384 19.0663 85.6974 19.3807C85.8603 19.6951 86.0895 19.9375 86.3849 20.108C86.6804 20.2784 87.0308 20.3636 87.4361 20.3636C87.705 20.3636 87.9512 20.3258 88.1747 20.25C88.3982 20.1742 88.5895 20.0606 88.7486 19.9091C88.9077 19.7576 89.0289 19.572 89.1122 19.3523L91.3509 19.5C91.2372 20.0379 91.0043 20.5076 90.652 20.9091C90.3035 21.3068 89.8527 21.6174 89.2997 21.8409C88.7505 22.0606 88.116 22.1705 87.3963 22.1705ZM100.243 15.7614L98.027 15.8977C97.9891 15.7083 97.9077 15.5379 97.7827 15.3864C97.6577 15.2311 97.4929 15.108 97.2884 15.017C97.0876 14.9223 96.8471 14.875 96.5668 14.875C96.1918 14.875 95.8755 14.9545 95.6179 15.1136C95.3603 15.2689 95.2315 15.4773 95.2315 15.7386C95.2315 15.947 95.3149 16.1231 95.4815 16.267C95.6482 16.411 95.9342 16.5265 96.3395 16.6136L97.919 16.9318C98.7675 17.1061 99.4001 17.3864 99.8168 17.7727C100.233 18.1591 100.442 18.6667 100.442 19.2955C100.442 19.8674 100.273 20.3693 99.9361 20.8011C99.6027 21.233 99.1444 21.5701 98.5611 21.8125C97.9815 22.0511 97.313 22.1705 96.5554 22.1705C95.4001 22.1705 94.4796 21.9299 93.794 21.4489C93.1122 20.964 92.7126 20.3049 92.5952 19.4716L94.9759 19.3466C95.0478 19.6989 95.2221 19.9678 95.4986 20.1534C95.7751 20.3352 96.1293 20.4261 96.5611 20.4261C96.9853 20.4261 97.3262 20.3447 97.5838 20.1818C97.8452 20.0152 97.9777 19.8011 97.9815 19.5398C97.9777 19.3201 97.8849 19.1402 97.7031 19C97.5213 18.8561 97.241 18.7462 96.8622 18.6705L95.3509 18.3693C94.4986 18.1989 93.8641 17.9034 93.4474 17.483C93.0346 17.0625 92.8281 16.5265 92.8281 15.875C92.8281 15.3144 92.9796 14.8314 93.2827 14.4261C93.5895 14.0208 94.0194 13.7083 94.5724 13.4886C95.1293 13.2689 95.7808 13.1591 96.527 13.1591C97.6293 13.1591 98.4967 13.392 99.1293 13.858C99.7656 14.3239 100.137 14.9583 100.243 15.7614ZM101.966 22V13.2727H104.386V22H101.966ZM103.182 12.1477C102.822 12.1477 102.513 12.0284 102.256 11.7898C102.002 11.5473 101.875 11.2576 101.875 10.9205C101.875 10.5871 102.002 10.3011 102.256 10.0625C102.513 9.82008 102.822 9.69886 103.182 9.69886C103.542 9.69886 103.848 9.82008 104.102 10.0625C104.36 10.3011 104.489 10.5871 104.489 10.9205C104.489 11.2576 104.36 11.5473 104.102 11.7898C103.848 12.0284 103.542 12.1477 103.182 12.1477ZM110.257 25.4545C109.473 25.4545 108.801 25.3466 108.24 25.1307C107.683 24.9186 107.24 24.6288 106.911 24.2614C106.581 23.8939 106.367 23.4811 106.268 23.0227L108.507 22.7216C108.575 22.8958 108.683 23.0587 108.831 23.2102C108.979 23.3617 109.174 23.483 109.416 23.5739C109.662 23.6686 109.962 23.7159 110.314 23.7159C110.84 23.7159 111.274 23.5871 111.615 23.3295C111.96 23.0758 112.132 22.6496 112.132 22.0511V20.4545H112.03C111.924 20.697 111.765 20.9261 111.553 21.142C111.34 21.358 111.068 21.5341 110.734 21.6705C110.401 21.8068 110.003 21.875 109.541 21.875C108.886 21.875 108.289 21.7235 107.751 21.4205C107.217 21.1136 106.791 20.6458 106.473 20.017C106.159 19.3845 106.001 18.5852 106.001 17.6193C106.001 16.6307 106.162 15.8049 106.484 15.142C106.806 14.4792 107.234 13.983 107.768 13.6534C108.306 13.3239 108.895 13.1591 109.536 13.1591C110.024 13.1591 110.433 13.2424 110.763 13.4091C111.092 13.572 111.357 13.7765 111.558 14.0227C111.763 14.2652 111.92 14.5038 112.03 14.7386H112.121V13.2727H114.524V22.0852C114.524 22.8277 114.342 23.4489 113.979 23.9489C113.615 24.4489 113.111 24.8239 112.467 25.0739C111.827 25.3277 111.09 25.4545 110.257 25.4545ZM110.308 20.0568C110.698 20.0568 111.028 19.9602 111.297 19.767C111.57 19.5701 111.778 19.2898 111.922 18.9261C112.07 18.5587 112.143 18.1193 112.143 17.608C112.143 17.0966 112.071 16.6534 111.928 16.2784C111.784 15.8996 111.575 15.6061 111.303 15.3977C111.03 15.1894 110.698 15.0852 110.308 15.0852C109.911 15.0852 109.575 15.1932 109.303 15.4091C109.03 15.6212 108.823 15.9167 108.683 16.2955C108.543 16.6742 108.473 17.1117 108.473 17.608C108.473 18.1117 108.543 18.5473 108.683 18.9148C108.827 19.2784 109.034 19.5606 109.303 19.7614C109.575 19.9583 109.911 20.0568 110.308 20.0568ZM118.871 16.9545V22H116.45V13.2727H118.757V14.8125H118.859C119.053 14.3049 119.376 13.9034 119.831 13.608C120.286 13.3087 120.837 13.1591 121.484 13.1591C122.09 13.1591 122.619 13.2917 123.07 13.5568C123.52 13.822 123.871 14.2008 124.121 14.6932C124.371 15.1818 124.496 15.7652 124.496 16.4432V22H122.075V16.875C122.079 16.3409 121.943 15.9242 121.666 15.625C121.39 15.322 121.009 15.1705 120.524 15.1705C120.198 15.1705 119.911 15.2405 119.661 15.3807C119.414 15.5208 119.221 15.7254 119.081 15.9943C118.945 16.2595 118.875 16.5795 118.871 16.9545Z" fill="white"/>
</svg>
