<svg width="56" height="57" fill="none" xmlns="http://www.w3.org/2000/svg"><circle cx="28" cy="28.5" r="28" fill="#fff" fill-opacity=".05"/><path fill-rule="evenodd" clip-rule="evenodd" d="M28.002 28.5a3.937 3.937 0 1 1 7.875 0 3.937 3.937 0 0 1-7.875 0z" fill="#1ABCFE"/><path fill-rule="evenodd" clip-rule="evenodd" d="M20.127 36.375a3.937 3.937 0 0 1 3.938-3.938h3.937v3.938a3.938 3.938 0 0 1-7.875 0z" fill="#0ACF83"/><path fill-rule="evenodd" clip-rule="evenodd" d="M28.002 16.688v7.875h3.938a3.938 3.938 0 0 0 0-7.875h-3.938z" fill="#FF7262"/><path fill-rule="evenodd" clip-rule="evenodd" d="M20.127 20.625a3.937 3.937 0 0 0 3.938 3.938h3.937v-7.875h-3.938a3.937 3.937 0 0 0-3.937 3.937z" fill="#F24E1E"/><path fill-rule="evenodd" clip-rule="evenodd" d="M20.127 28.5a3.937 3.937 0 0 0 3.938 3.938h3.937v-7.876h-3.938a3.937 3.937 0 0 0-3.937 3.938z" fill="#A259FF"/></svg>