<svg width="56" height="57" fill="none" xmlns="http://www.w3.org/2000/svg"><circle cx="28" cy="28.5" r="28" fill="#fff" fill-opacity=".05"/><path fill-rule="evenodd" clip-rule="evenodd" d="m19.003 40.066-3.009-3.75a5.034 5.034 0 0 1-1.117-3.152V19.588c0-1.71 1.368-3.129 3.133-3.25l13.958-.952a4.55 4.55 0 0 1 2.854.763l4.904 3.316a3.142 3.142 0 0 1 1.401 2.599v15.434c0 1.673-1.345 3.059-3.073 3.165l-15.492.954a4.23 4.23 0 0 1-3.559-1.551z" fill="#fff"/><path d="M23.843 26.382v-.178c0-.45.361-.824.826-.855l3.388-.226 4.684 6.898v-6.055l-1.205-.16v-.085a.87.87 0 0 1 .84-.856l3.082-.158v.444a.433.433 0 0 1-.367.422l-.742.125v9.806l-.93.32a1.806 1.806 0 0 1-2.09-.691l-4.547-6.863v6.55l1.4.268-.02.13a.876.876 0 0 1-.837.733l-3.482.155a.807.807 0 0 1 .735-.876l.457-.048V26.45l-1.192-.067z" fill="#000"/><path fill-rule="evenodd" clip-rule="evenodd" d="m32.092 17.096-13.957.953c-.837.057-1.485.73-1.485 1.54v13.575c0 .761.262 1.5.745 2.102l3.01 3.749a2.43 2.43 0 0 0 2.044.891l15.491-.953c.794-.05 1.412-.686 1.412-1.455V22.064c0-.476-.24-.921-.643-1.194l-4.904-3.316a2.73 2.73 0 0 0-1.713-.458zM18.827 19.8c-.195-.143-.102-.443.142-.46l13.217-.948c.421-.03.84.085 1.18.327l2.652 1.878c.1.072.053.226-.071.232l-13.997.762a1.817 1.817 0 0 1-1.179-.351l-1.944-1.44zm2.466 4.177a.87.87 0 0 1 .837-.856l14.8-.806c.457-.025.842.327.842.77V36.45a.87.87 0 0 1-.834.856l-14.706.836c-.509.03-.939-.362-.939-.855v-13.31z" fill="#000"/></svg>