<svg width="151" height="64" fill="none" xmlns="http://www.w3.org/2000/svg"><g filter="url(#a)"><rect width="151" height="64" rx="12" fill="#fff" fill-opacity=".05"/><circle cx="32" cy="32" r="16" fill="#E5AF4A" fill-opacity=".2"/><path d="M31.998 40.89a8.596 8.596 0 0 1-3.444-.7 9 9 0 0 1-2.833-1.911 9.001 9.001 0 0 1-1.911-2.833 8.597 8.597 0 0 1-.7-3.445c0-1.23.24-2.385.721-3.466a9.006 9.006 0 0 1 1.957-2.823 9.315 9.315 0 0 1 2.877-1.9 8.875 8.875 0 0 1 3.511-.7c1.185 0 2.304.204 3.356.612a8.8 8.8 0 0 1 2.766 1.689 8.068 8.068 0 0 1 1.889 2.555c.467.985.7 2.048.7 3.189 0 1.704-.518 3.01-1.555 3.921-1.037.912-2.297 1.368-3.778 1.368h-1.645c-.133 0-.225.037-.277.11a.416.416 0 0 0-.078.245c0 .178.11.433.333.766.222.334.334.716.334 1.145 0 .741-.204 1.29-.612 1.645-.407.355-.944.533-1.61.533zm-4.889-8c.386 0 .704-.126.956-.378s.378-.57.378-.955-.126-.704-.378-.956-.57-.378-.956-.378c-.385 0-.703.126-.955.378s-.378.57-.378.956c0 .385.126.704.378.955.252.252.57.378.955.378zm2.667-3.556c.385 0 .704-.125.956-.377.251-.252.377-.57.377-.956 0-.385-.126-.704-.377-.955-.252-.252-.57-.378-.956-.378-.385 0-.704.126-.956.378-.251.252-.377.57-.377.955s.126.704.377.956c.252.252.57.377.956.377zm4.445 0c.385 0 .703-.125.955-.377s.378-.57.378-.956c0-.385-.126-.704-.378-.955-.252-.252-.57-.378-.956-.378-.385 0-.703.126-.955.378s-.378.57-.378.955.126.704.378.956.57.377.956.377zm2.666 3.556c.385 0 .704-.126.956-.378s.377-.57.377-.955-.125-.704-.377-.956-.57-.378-.956-.378c-.385 0-.704.126-.955.378-.252.252-.378.57-.378.956 0 .385.126.704.378.955.251.252.57.378.955.378z" fill="#E5AF4A"/><path d="M68.199 26.364h2.46v7.556c0 .849-.203 1.591-.608 2.228-.401.636-.964 1.132-1.687 1.488-.724.353-1.567.529-2.529.529-.966 0-1.81-.176-2.534-.529-.723-.356-1.286-.852-1.687-1.488-.402-.637-.603-1.38-.603-2.228v-7.556h2.46v7.346c0 .443.097.837.29 1.182.197.345.474.616.83.813.356.197.77.295 1.244.295.478 0 .892-.099 1.245-.295.356-.197.63-.468.823-.813.197-.345.296-.739.296-1.182v-7.346zm6.945 0V38h-2.46V26.364h2.46zM84.996 38H80.87V26.364h4.159c1.17 0 2.178.233 3.023.698A4.714 4.714 0 0 1 90 29.058c.459.867.688 1.905.688 3.113 0 1.213-.23 2.254-.688 3.125a4.724 4.724 0 0 1-1.96 2.006c-.848.466-1.863.699-3.045.699zm-1.665-2.108h1.563c.727 0 1.338-.129 1.835-.386.5-.262.875-.665 1.125-1.21.254-.55.38-1.258.38-2.126 0-.86-.126-1.562-.38-2.108-.25-.545-.623-.947-1.12-1.204-.496-.258-1.108-.386-1.835-.386h-1.568v7.42zm13.112 2.278c-.897 0-1.67-.181-2.318-.545a3.735 3.735 0 0 1-1.489-1.557c-.348-.674-.522-1.471-.522-2.392 0-.898.174-1.686.522-2.364a3.863 3.863 0 0 1 1.472-1.585c.636-.378 1.382-.568 2.239-.568.575 0 1.111.093 1.608.279.5.181.935.456 1.306.823.375.368.667.83.875 1.387.209.553.313 1.2.313 1.943v.665h-7.37v-1.5h5.092c0-.349-.076-.657-.228-.927a1.628 1.628 0 0 0-.63-.63 1.799 1.799 0 0 0-.927-.233c-.367 0-.693.085-.977.256-.28.166-.5.392-.659.676-.16.28-.24.592-.244.937v1.426c0 .432.08.805.238 1.12.163.314.392.556.688.727.295.17.646.256 1.051.256.269 0 .515-.038.739-.114.223-.076.414-.19.574-.34.158-.152.28-.338.363-.558l2.239.148a3.062 3.062 0 0 1-.7 1.41c-.348.397-.798.707-1.351.93-.55.22-1.184.33-1.904.33zm12.847-6.409-2.216.137a1.146 1.146 0 0 0-.244-.512 1.297 1.297 0 0 0-.495-.369 1.678 1.678 0 0 0-.721-.142c-.375 0-.692.08-.949.239-.258.155-.387.363-.387.625 0 .208.084.384.25.528.167.144.453.26.858.347l1.58.318c.848.174 1.481.454 1.898.84.416.387.625.895.625 1.523 0 .572-.169 1.074-.506 1.506-.333.432-.792.77-1.375 1.011-.58.24-1.248.358-2.006.358-1.155 0-2.075-.24-2.761-.721a2.81 2.81 0 0 1-1.199-1.977l2.381-.125c.072.352.246.62.522.806.277.182.631.273 1.063.273.424 0 .765-.081 1.023-.244.261-.167.394-.38.397-.642a.665.665 0 0 0-.278-.54c-.182-.144-.462-.254-.841-.33l-1.511-.3c-.853-.171-1.487-.467-1.904-.887-.413-.42-.619-.956-.619-1.608 0-.56.152-1.044.455-1.449.306-.405.736-.718 1.289-.937.557-.22 1.209-.33 1.955-.33 1.102 0 1.97.233 2.602.699.637.466 1.008 1.1 1.114 1.903zM111.013 38v-8.727h2.42V38h-2.42zm1.216-9.852c-.36 0-.669-.12-.926-.358a1.16 1.16 0 0 1-.381-.87c0-.333.127-.619.381-.858.257-.242.566-.363.926-.363.36 0 .666.121.92.363.258.24.387.525.387.858 0 .338-.129.627-.387.87-.254.238-.56.358-.92.358zm7.075 13.307c-.784 0-1.456-.108-2.017-.324-.557-.212-1-.502-1.33-.87a2.683 2.683 0 0 1-.642-1.238l2.239-.301c.068.174.176.337.324.488.148.152.343.273.585.364.246.095.546.142.898.142.526 0 .96-.129 1.301-.386.345-.254.517-.68.517-1.279v-1.596h-.102a2.285 2.285 0 0 1-.478.687 2.396 2.396 0 0 1-.818.528c-.333.137-.731.205-1.193.205a3.585 3.585 0 0 1-1.79-.455c-.534-.306-.96-.774-1.278-1.403-.315-.633-.472-1.432-.472-2.398 0-.988.161-1.814.483-2.477.322-.663.75-1.159 1.284-1.489a3.32 3.32 0 0 1 1.767-.494c.489 0 .898.083 1.228.25.329.163.594.367.795.614.205.242.362.48.472.716h.091v-1.466h2.403v8.812c0 .743-.182 1.364-.545 1.864-.364.5-.868.875-1.512 1.125-.64.254-1.377.38-2.21.38zm.051-5.398c.39 0 .72-.097.989-.29.272-.197.481-.477.625-.84.147-.368.221-.808.221-1.319 0-.511-.072-.955-.216-1.33-.144-.378-.352-.672-.625-.88-.272-.209-.604-.313-.994-.313-.398 0-.733.108-1.006.324-.272.212-.479.508-.619.886-.14.38-.21.817-.21 1.313 0 .504.07.94.21 1.307.144.363.35.646.619.846.273.197.608.296 1.006.296zm8.563-3.102V38h-2.421v-8.727h2.307v1.54h.102c.193-.508.517-.91.972-1.205.454-.3 1.006-.449 1.653-.449.606 0 1.135.133 1.585.398.451.265.802.644 1.052 1.136.25.489.375 1.072.375 1.75V38h-2.421v-5.125c.004-.534-.132-.95-.409-1.25-.276-.303-.657-.454-1.142-.454-.326 0-.614.07-.864.21-.246.14-.439.344-.579.613-.137.266-.207.586-.21.96z" fill="#fff"/></g><defs><filter id="a" x="-32" y="-32" width="215" height="128" filterUnits="userSpaceOnUse" color-interpolation-filters="sRGB"><feFlood flood-opacity="0" result="BackgroundImageFix"/><feGaussianBlur in="BackgroundImageFix" stdDeviation="16"/><feComposite in2="SourceAlpha" operator="in" result="effect1_backgroundBlur_2114_7464"/><feBlend in="SourceGraphic" in2="effect1_backgroundBlur_2114_7464" result="shape"/></filter></defs></svg>